STARTFONT 2.1
COMMENT Copyright (C) 1990-1991 EWT Consulting
COMMENT Portions Copyright (C) 1994-1995 Cronyx Ltd.
COMMENT Modified by Serge Vakulenko, <vak@cronyx.ru>
COMMENT Encoding changed to CP1251 by Rabinovich Moisei, <moisei@cs.bgu.ac.il>,$
COMMENT This software may be used, modified, copied, distributed, and sold,
COMMENT in both source and binary form provided that the copyright
COMMENT and these terms are retained. Under no circumstances is the author
COMMENT responsible for the proper functioning of this software, nor does
COMMENT the author assume any responsibility for damages incurred with its use.
FONT -Cronyx-Times-Medium-R-Normal--18-180-75-75-P-94-RAWIN-R
SIZE 18 96 96
FONTBOUNDINGBOX 23 27 0 -6
STARTPROPERTIES 19
DEFAULT_CHAR 32
FONT_ASCENT 21
FONT_DESCENT 6
SPACING "P"
FONTNAME_REGISTRY ""
FOUNDRY "Cronyx"
FAMILY_NAME "Times"
WEIGHT_NAME "Medium"
SLANT "R"
SETWIDTH_NAME "Normal"
ADD_STYLE_NAME ""
AVERAGE_WIDTH 94
CHARSET_REGISTRY "RAWIN"
CHARSET_ENCODING "R"
PIXEL_SIZE 18
POINT_SIZE 180
RESOLUTION_X 75
RESOLUTION_Y 75
COPYRIGHT "Copyright (C) 1990, 1991 EWT Consulting, Portions Copyright (C) 1994 Cronyx Ltd."
ENDPROPERTIES
CHARS 224
STARTCHAR space
ENCODING 32
SWIDTH 222 0
DWIDTH 6 0
BBX 6 27 0 -6
BITMAP
00
00
00
00
00
00
00
00
00
00
00
00
00
00
00
00
00
00
00
00
00
00
00
00
00
00
00
ENDCHAR
STARTCHAR exclam
ENCODING 33
SWIDTH 259 0
DWIDTH 7 0
BBX 7 27 0 -6
BITMAP
00
00
00
00
10
38
38
38
38
38
38
38
10
10
10
10
00
10
38
38
10
00
00
00
00
00
00
ENDCHAR
STARTCHAR quotedbl
ENCODING 34
SWIDTH 370 0
DWIDTH 10 0
BBX 10 27 0 -6
BITMAP
0000
0000
0000
0000
2100
7380
7380
2100
2100
2100
0000
0000
0000
0000
0000
0000
0000
0000
0000
0000
0000
0000
0000
0000
0000
0000
0000
ENDCHAR
STARTCHAR numbersign
ENCODING 35
SWIDTH 444 0
DWIDTH 12 0
BBX 12 27 0 -6
BITMAP
0000
0000
0000
0000
18c0
18c0
18c0
18c0
18c0
7ff0
3180
3180
3180
3180
3180
ffe0
6300
6300
6300
6300
6300
0000
0000
0000
0000
0000
0000
ENDCHAR
STARTCHAR dollar
ENCODING 36
SWIDTH 444 0
DWIDTH 12 0
BBX 12 27 0 -6
BITMAP
0000
0000
0000
0200
0200
0fa0
1ae0
3260
3220
3220
3a00
1e00
0f80
03c0
02c0
02e0
4260
4260
6260
72c0
5f80
0200
0200
0200
0000
0000
0000
ENDCHAR
STARTCHAR percent
ENCODING 37
SWIDTH 740 0
DWIDTH 20 0
BBX 20 27 0 -6
BITMAP
000000
000000
000000
000000
0f0300
19ff00
308e00
608c00
608c00
611800
623000
3c3000
006000
00c3c0
00c660
018c20
031820
031820
061840
0c1880
0c0f00
000000
000000
000000
000000
000000
000000
ENDCHAR
STARTCHAR ampersand
ENCODING 38
SWIDTH 703 0
DWIDTH 19 0
BBX 19 27 0 -6
BITMAP
000000
000000
000000
000000
01c000
036000
063000
061000
063000
036000
03c000
078f80
1dc700
30c200
306600
607400
603c00
601c00
303e40
3ce7c0
0f8380
000000
000000
000000
000000
000000
000000
ENDCHAR
STARTCHAR quoteright
ENCODING 39
SWIDTH 222 0
DWIDTH 6 0
BBX 6 27 0 -6
BITMAP
00
00
00
00
10
38
38
10
10
10
00
00
00
00
00
00
00
00
00
00
00
00
00
00
00
00
00
ENDCHAR
STARTCHAR parenleft
ENCODING 40
SWIDTH 296 0
DWIDTH 8 0
BBX 8 27 0 -6
BITMAP
00
00
00
00
02
04
08
18
10
30
30
60
60
60
60
60
60
60
60
30
30
10
18
08
04
02
00
ENDCHAR
STARTCHAR parenright
ENCODING 41
SWIDTH 296 0
DWIDTH 8 0
BBX 8 27 0 -6
BITMAP
00
00
00
00
40
20
10
18
08
0c
0c
06
06
06
06
06
06
06
06
06
0c
0c
08
18
10
20
00
ENDCHAR
STARTCHAR asterisk
ENCODING 42
SWIDTH 296 0
DWIDTH 8 0
BBX 8 27 0 -6
BITMAP
00
00
00
08
1c
6b
7f
1c
7f
6b
1c
08
00
00
00
00
00
00
00
00
00
00
00
00
00
00
00
ENDCHAR
STARTCHAR plus
ENCODING 43
SWIDTH 518 0
DWIDTH 14 0
BBX 14 27 0 -6
BITMAP
0000
0000
0000
0000
0000
0000
0000
0000
0000
0300
0300
0300
0300
3ff0
3ff0
0300
0300
0300
0300
0000
0000
0000
0000
0000
0000
0000
0000
ENDCHAR
STARTCHAR comma
ENCODING 44
SWIDTH 222 0
DWIDTH 6 0
BBX 6 27 0 -6
BITMAP
00
00
00
00
00
00
00
00
00
00
00
00
00
00
00
00
00
10
38
38
18
08
08
10
00
00
00
ENDCHAR
STARTCHAR minus
ENCODING 45
SWIDTH 296 0
DWIDTH 8 0
BBX 8 27 0 -6
BITMAP
00
00
00
00
00
00
00
00
00
00
00
00
00
7e
7e
00
00
00
00
00
00
00
00
00
00
00
00
ENDCHAR
STARTCHAR period
ENCODING 46
SWIDTH 222 0
DWIDTH 6 0
BBX 6 27 0 -6
BITMAP
00
00
00
00
00
00
00
00
00
00
00
00
00
00
00
00
00
10
38
38
10
00
00
00
00
00
00
ENDCHAR
STARTCHAR slash
ENCODING 47
SWIDTH 259 0
DWIDTH 7 0
BBX 7 27 0 -6
BITMAP
00
00
00
00
06
06
06
0c
0c
0c
18
18
18
30
30
30
60
60
60
c0
c0
c0
00
00
00
00
00
ENDCHAR
STARTCHAR zero
ENCODING 48
SWIDTH 444 0
DWIDTH 12 0
BBX 12 27 0 -6
BITMAP
0000
0000
0000
0000
0000
0f00
1980
30c0
30c0
6060
6060
6060
6060
6060
6060
6060
6060
30c0
30c0
1980
0f00
0000
0000
0000
0000
0000
0000
ENDCHAR
STARTCHAR one
ENCODING 49
SWIDTH 444 0
DWIDTH 12 0
BBX 12 27 0 -6
BITMAP
0000
0000
0000
0000
0000
0200
0600
0e00
1e00
0600
0600
0600
0600
0600
0600
0600
0600
0600
0600
0f00
1f80
0000
0000
0000
0000
0000
0000
ENDCHAR
STARTCHAR two
ENCODING 50
SWIDTH 444 0
DWIDTH 12 0
BBX 12 27 0 -6
BITMAP
0000
0000
0000
0000
0000
0f00
1f80
31c0
20c0
00c0
00c0
00c0
0180
0180
0300
0600
0400
0820
1060
3fc0
7fc0
0000
0000
0000
0000
0000
0000
ENDCHAR
STARTCHAR three
ENCODING 51
SWIDTH 444 0
DWIDTH 12 0
BBX 12 27 0 -6
BITMAP
0000
0000
0000
0000
0000
0f00
1f80
31c0
00c0
00c0
0180
0780
01c0
00c0
0060
0060
0060
00e0
71c0
7b80
1f00
0000
0000
0000
0000
0000
0000
ENDCHAR
STARTCHAR four
ENCODING 52
SWIDTH 444 0
DWIDTH 12 0
BBX 12 27 0 -6
BITMAP
0000
0000
0000
0000
0000
01c0
01c0
03c0
06c0
0cc0
08c0
18c0
30c0
60c0
60c0
7ff0
7ff0
00c0
00c0
00c0
00c0
0000
0000
0000
0000
0000
0000
ENDCHAR
STARTCHAR five
ENCODING 53
SWIDTH 444 0
DWIDTH 12 0
BBX 12 27 0 -6
BITMAP
0000
0000
0000
0000
0000
1fc0
1f80
1000
2000
2000
3f00
3fc0
01c0
00e0
0060
0060
0060
0060
70c0
79c0
1f00
0000
0000
0000
0000
0000
0000
ENDCHAR
STARTCHAR six
ENCODING 54
SWIDTH 444 0
DWIDTH 12 0
BBX 12 27 0 -6
BITMAP
0000
0000
0000
0000
0000
0180
0600
0c00
1800
3000
3000
7700
79c0
70c0
6060
6060
6060
6060
30c0
39c0
0f00
0000
0000
0000
0000
0000
0000
ENDCHAR
STARTCHAR seven
ENCODING 55
SWIDTH 444 0
DWIDTH 12 0
BBX 12 27 0 -6
BITMAP
0000
0000
0000
0000
0000
3fe0
3fc0
60c0
40c0
0180
0180
0100
0300
0300
0600
0600
0600
0c00
0c00
1800
1800
0000
0000
0000
0000
0000
0000
ENDCHAR
STARTCHAR eight
ENCODING 56
SWIDTH 444 0
DWIDTH 12 0
BBX 12 27 0 -6
BITMAP
0000
0000
0000
0000
0000
1f00
3180
60c0
60c0
70c0
38c0
1d80
1f80
37c0
21c0
60e0
6060
6060
30c0
39c0
0f00
0000
0000
0000
0000
0000
0000
ENDCHAR
STARTCHAR nine
ENCODING 57
SWIDTH 444 0
DWIDTH 12 0
BBX 12 27 0 -6
BITMAP
0000
0000
0000
0000
0000
0f00
39c0
30c0
6060
6060
6060
6060
30e0
39e0
0ee0
00c0
00c0
0180
0300
0600
1800
0000
0000
0000
0000
0000
0000
ENDCHAR
STARTCHAR colon
ENCODING 58
SWIDTH 259 0
DWIDTH 7 0
BBX 7 27 0 -6
BITMAP
00
00
00
00
00
00
00
00
00
00
10
38
38
10
00
00
00
10
38
38
10
00
00
00
00
00
00
ENDCHAR
STARTCHAR semicolon
ENCODING 59
SWIDTH 259 0
DWIDTH 7 0
BBX 7 27 0 -6
BITMAP
00
00
00
00
00
00
00
00
00
00
10
38
38
10
00
00
00
10
38
38
18
08
08
10
00
00
00
ENDCHAR
STARTCHAR less
ENCODING 60
SWIDTH 518 0
DWIDTH 14 0
BBX 14 27 0 -6
BITMAP
0000
0000
0000
0000
0000
0000
0000
0030
00e0
01c0
0700
0e00
3800
7000
3800
0e00
0700
01c0
00e0
0030
0000
0000
0000
0000
0000
0000
0000
ENDCHAR
STARTCHAR equal
ENCODING 61
SWIDTH 518 0
DWIDTH 14 0
BBX 14 27 0 -6
BITMAP
0000
0000
0000
0000
0000
0000
0000
0000
0000
0000
7ff8
7ff8
0000
0000
0000
7ff8
7ff8
0000
0000
0000
0000
0000
0000
0000
0000
0000
0000
ENDCHAR
STARTCHAR greater
ENCODING 62
SWIDTH 518 0
DWIDTH 14 0
BBX 14 27 0 -6
BITMAP
0000
0000
0000
0000
0000
0000
0000
3000
1c00
0e00
0380
01c0
0070
0038
0070
01c0
0380
0e00
1c00
3000
0000
0000
0000
0000
0000
0000
0000
ENDCHAR
STARTCHAR question
ENCODING 63
SWIDTH 407 0
DWIDTH 11 0
BBX 11 27 0 -6
BITMAP
0000
0000
0000
0000
1f00
3380
61c0
71c0
71c0
2180
0180
0300
0600
0400
0400
0400
0000
0400
0e00
0e00
0400
0000
0000
0000
0000
0000
0000
ENDCHAR
STARTCHAR at
ENCODING 64
SWIDTH 851 0
DWIDTH 23 0
BBX 23 27 0 -6
BITMAP
000000
000000
000000
000000
000000
000000
000000
00fe00
038380
0e00e0
180030
307c18
30c718
61830c
63030c
63060c
630618
618f38
30fbe0
300000
180000
0e0000
038300
00fc00
000000
000000
000000
ENDCHAR
STARTCHAR A
ENCODING 65
SWIDTH 629 0
DWIDTH 17 0
BBX 17 27 0 -6
BITMAP
000000
000000
000000
000000
000000
00c000
00c000
01e000
016000
033000
023000
023000
061800
041800
041800
0ffc00
080c00
180600
100600
100600
7c1f80
000000
000000
000000
000000
000000
000000
ENDCHAR
STARTCHAR B
ENCODING 66
SWIDTH 592 0
DWIDTH 16 0
BBX 16 27 0 -6
BITMAP
0000
0000
0000
0000
0000
7ff0
1818
180c
180c
180c
180c
1818
1ff8
181c
180c
1806
1806
1806
180c
181c
7ff0
0000
0000
0000
0000
0000
0000
ENDCHAR
STARTCHAR C
ENCODING 67
SWIDTH 555 0
DWIDTH 15 0
BBX 15 27 0 -6
BITMAP
0000
0000
0000
0000
0000
03e4
0e3c
180c
3004
3004
6000
6000
6000
6000
6000
6000
3000
3004
1808
0e30
03c0
0000
0000
0000
0000
0000
0000
ENDCHAR
STARTCHAR D
ENCODING 68
SWIDTH 629 0
DWIDTH 17 0
BBX 17 27 0 -6
BITMAP
000000
000000
000000
000000
000000
7fe000
183800
180c00
180600
180600
180300
180300
180300
180300
180300
180300
180600
180600
180c00
183800
7fe000
000000
000000
000000
000000
000000
000000
ENDCHAR
STARTCHAR E
ENCODING 69
SWIDTH 518 0
DWIDTH 14 0
BBX 14 27 0 -6
BITMAP
0000
0000
0000
0000
0000
7ff0
1830
1810
1800
1800
1840
1840
1fc0
1840
1840
1800
1800
1800
1808
1818
7ff0
0000
0000
0000
0000
0000
0000
ENDCHAR
STARTCHAR F
ENCODING 70
SWIDTH 481 0
DWIDTH 13 0
BBX 13 27 0 -6
BITMAP
0000
0000
0000
0000
0000
7ff0
1830
1810
1800
1800
1840
1840
1fc0
1840
1840
1800
1800
1800
1800
1800
7e00
0000
0000
0000
0000
0000
0000
ENDCHAR
STARTCHAR G
ENCODING 71
SWIDTH 629 0
DWIDTH 17 0
BBX 17 27 0 -6
BITMAP
000000
000000
000000
000000
000000
03e400
0e1c00
180c00
300400
300400
600000
600000
600000
601f80
600600
600600
300600
300600
180400
0e1800
03e000
000000
000000
000000
000000
000000
000000
ENDCHAR
STARTCHAR H
ENCODING 72
SWIDTH 629 0
DWIDTH 17 0
BBX 17 27 0 -6
BITMAP
000000
000000
000000
000000
000000
7e3f00
180c00
180c00
180c00
180c00
180c00
180c00
1ffc00
180c00
180c00
180c00
180c00
180c00
180c00
180c00
7e3f00
000000
000000
000000
000000
000000
000000
ENDCHAR
STARTCHAR I
ENCODING 73
SWIDTH 296 0
DWIDTH 8 0
BBX 8 27 0 -6
BITMAP
00
00
00
00
00
7e
18
18
18
18
18
18
18
18
18
18
18
18
18
18
7e
00
00
00
00
00
00
ENDCHAR
STARTCHAR J
ENCODING 74
SWIDTH 370 0
DWIDTH 10 0
BBX 10 27 0 -6
BITMAP
0000
0000
0000
0000
0000
1f80
0600
0600
0600
0600
0600
0600
0600
0600
0600
0600
0600
0600
6600
6600
3c00
0000
0000
0000
0000
0000
0000
ENDCHAR
STARTCHAR K
ENCODING 75
SWIDTH 629 0
DWIDTH 17 0
BBX 17 27 0 -6
BITMAP
000000
000000
000000
000000
000000
7e3e00
181800
183000
186000
18c000
198000
1b8000
1f8000
1cc000
186000
186000
183000
181800
181800
180c00
7e3f80
000000
000000
000000
000000
000000
000000
ENDCHAR
STARTCHAR L
ENCODING 76
SWIDTH 518 0
DWIDTH 14 0
BBX 14 27 0 -6
BITMAP
0000
0000
0000
0000
0000
7f00
1800
1800
1800
1800
1800
1800
1800
1800
1800
1800
1800
1800
1808
1818
7ff0
0000
0000
0000
0000
0000
0000
ENDCHAR
STARTCHAR M
ENCODING 77
SWIDTH 777 0
DWIDTH 21 0
BBX 21 27 0 -6
BITMAP
000000
000000
000000
000000
000000
7c01f0
1c01c0
1e01c0
1603c0
1602c0
1302c0
1306c0
1184c0
1184c0
118cc0
10c8c0
10d8c0
1070c0
1070c0
1070c0
7c21f0
000000
000000
000000
000000
000000
000000
ENDCHAR
STARTCHAR N
ENCODING 78
SWIDTH 629 0
DWIDTH 17 0
BBX 17 27 0 -6
BITMAP
000000
000000
000000
000000
000000
781f00
180400
1c0400
1e0400
160400
130400
118400
118400
10c400
106400
106400
103400
101c00
101c00
100c00
7c0400
000000
000000
000000
000000
000000
000000
ENDCHAR
STARTCHAR O
ENCODING 79
SWIDTH 629 0
DWIDTH 17 0
BBX 17 27 0 -6
BITMAP
000000
000000
000000
000000
000000
03e000
0e3800
180c00
300600
300600
600300
600300
600300
600300
600300
600300
300600
300600
180c00
0e3800
03e000
000000
000000
000000
000000
000000
000000
ENDCHAR
STARTCHAR P
ENCODING 80
SWIDTH 518 0
DWIDTH 14 0
BBX 14 27 0 -6
BITMAP
0000
0000
0000
0000
0000
7fc0
1870
1830
1818
1818
1818
1830
1870
1fc0
1800
1800
1800
1800
1800
1800
7e00
0000
0000
0000
0000
0000
0000
ENDCHAR
STARTCHAR Q
ENCODING 81
SWIDTH 629 0
DWIDTH 17 0
BBX 17 27 0 -6
BITMAP
000000
000000
000000
000000
000000
03e000
0e3800
180c00
300600
300600
600300
600300
600300
600300
600300
600300
300600
300600
180c00
0e3800
03e000
01e000
00f000
003e00
000000
000000
000000
ENDCHAR
STARTCHAR R
ENCODING 82
SWIDTH 592 0
DWIDTH 16 0
BBX 16 27 0 -6
BITMAP
0000
0000
0000
0000
0000
7fe0
1838
1818
180c
180c
180c
1818
1838
1fe0
1860
1870
1830
1838
1818
181c
7e0f
0000
0000
0000
0000
0000
0000
ENDCHAR
STARTCHAR S
ENCODING 83
SWIDTH 481 0
DWIDTH 13 0
BBX 13 27 0 -6
BITMAP
0000
0000
0000
0000
0000
1fa0
30e0
6060
6020
7020
3800
3e00
0f80
03e0
00e0
0070
4030
4030
6060
70e0
5f80
0000
0000
0000
0000
0000
0000
ENDCHAR
STARTCHAR T
ENCODING 84
SWIDTH 592 0
DWIDTH 16 0
BBX 16 27 0 -6
BITMAP
0000
0000
0000
0000
0000
7ffe
6186
4182
4182
0180
0180
0180
0180
0180
0180
0180
0180
0180
0180
0180
07e0
0000
0000
0000
0000
0000
0000
ENDCHAR
STARTCHAR U
ENCODING 85
SWIDTH 629 0
DWIDTH 17 0
BBX 17 27 0 -6
BITMAP
000000
000000
000000
000000
000000
7e1f00
180400
180400
180400
180400
180400
180400
180400
180400
180400
180400
180400
180400
0c0800
0e1800
03e000
000000
000000
000000
000000
000000
000000
ENDCHAR
STARTCHAR V
ENCODING 86
SWIDTH 629 0
DWIDTH 17 0
BBX 17 27 0 -6
BITMAP
000000
000000
000000
000000
000000
fc1f80
600e00
300400
300400
180800
180800
0c1000
0c1000
061000
062000
032000
034000
01c000
01c000
008000
008000
000000
000000
000000
000000
000000
000000
ENDCHAR
STARTCHAR W
ENCODING 87
SWIDTH 814 0
DWIDTH 22 0
BBX 22 27 0 -6
BITMAP
000000
000000
000000
000000
000000
f9fdfc
707070
303020
303020
303020
185840
185840
185840
0c8c80
0c8c80
0c8c80
070700
070700
030700
020200
020200
000000
000000
000000
000000
000000
000000
ENDCHAR
STARTCHAR X
ENCODING 88
SWIDTH 666 0
DWIDTH 18 0
BBX 18 27 0 -6
BITMAP
000000
000000
000000
000000
000000
7f1f00
1c0400
0c0800
060800
031000
01a000
00c000
00e000
00e000
013000
021800
021800
040c00
080600
1c0600
7f1f80
000000
000000
000000
000000
000000
000000
ENDCHAR
STARTCHAR Y
ENCODING 89
SWIDTH 666 0
DWIDTH 18 0
BBX 18 27 0 -6
BITMAP
000000
000000
000000
000000
000000
fe0fc0
380300
1c0600
0c0400
0e0c00
071800
031000
03b000
01e000
00c000
00c000
00c000
00c000
00c000
00c000
03f000
000000
000000
000000
000000
000000
000000
ENDCHAR
STARTCHAR Z
ENCODING 90
SWIDTH 555 0
DWIDTH 15 0
BBX 15 27 0 -6
BITMAP
0000
0000
0000
0000
0000
3ffc
3038
2030
0070
00e0
00c0
01c0
0380
0300
0700
0e00
0c00
1c00
3804
300c
7ffc
0000
0000
0000
0000
0000
0000
ENDCHAR
STARTCHAR bracketleft
ENCODING 91
SWIDTH 296 0
DWIDTH 8 0
BBX 8 27 0 -6
BITMAP
00
00
00
00
3e
38
30
30
30
30
30
30
30
30
30
30
30
30
30
30
30
30
30
30
38
3e
00
ENDCHAR
STARTCHAR backslash
ENCODING 92
SWIDTH 259 0
DWIDTH 7 0
BBX 7 27 0 -6
BITMAP
00
00
00
00
c0
c0
c0
60
60
60
30
30
30
18
18
18
0c
0c
0c
06
06
00
00
00
00
00
00
ENDCHAR
STARTCHAR bracketright
ENCODING 93
SWIDTH 296 0
DWIDTH 8 0
BBX 8 27 0 -6
BITMAP
00
00
00
00
7c
1c
0c
0c
0c
0c
0c
0c
0c
0c
0c
0c
0c
0c
0c
0c
0c
0c
0c
0c
1c
7c
00
ENDCHAR
STARTCHAR asciicircum
ENCODING 94
SWIDTH 407 0
DWIDTH 11 0
BBX 11 27 0 -6
BITMAP
0000
0000
0000
0000
0400
0e00
1f00
3180
60c0
0000
0000
0000
0000
0000
0000
0000
0000
0000
0000
0000
0000
0000
0000
0000
0000
0000
0000
ENDCHAR
STARTCHAR underscore
ENCODING 95
SWIDTH 444 0
DWIDTH 12 0
BBX 12 27 0 -6
BITMAP
0000
0000
0000
0000
0000
0000
0000
0000
0000
0000
0000
0000
0000
0000
0000
0000
0000
0000
0000
0000
0000
0000
0000
fff0
fff0
0000
0000
ENDCHAR
STARTCHAR quoteleft
ENCODING 96
SWIDTH 296 0
DWIDTH 8 0
BBX 8 27 0 -6
BITMAP
00
00
00
00
30
18
04
00
00
00
00
00
00
00
00
00
00
00
00
00
00
00
00
00
00
00
00
ENDCHAR
STARTCHAR a
ENCODING 97
SWIDTH 407 0
DWIDTH 11 0
BBX 11 27 0 -6
BITMAP
0000
0000
0000
0000
0000
0000
0000
0000
0000
0000
1f00
3180
3180
0180
0780
1d80
3180
6180
63a0
77e0
3cc0
0000
0000
0000
0000
0000
0000
ENDCHAR
STARTCHAR b
ENCODING 98
SWIDTH 407 0
DWIDTH 11 0
BBX 11 27 0 -6
BITMAP
0000
0000
0000
0000
1000
7000
3000
3000
3000
3000
3780
38c0
3060
3060
3060
3060
3060
3060
3060
18c0
0f00
0000
0000
0000
0000
0000
0000
ENDCHAR
STARTCHAR c
ENCODING 99
SWIDTH 370 0
DWIDTH 10 0
BBX 10 27 0 -6
BITMAP
0000
0000
0000
0000
0000
0000
0000
0000
0000
0000
0f80
30c0
20c0
6000
6000
6000
6000
6000
3040
18c0
0f80
0000
0000
0000
0000
0000
0000
ENDCHAR
STARTCHAR d
ENCODING 100
SWIDTH 407 0
DWIDTH 11 0
BBX 11 27 0 -6
BITMAP
0000
0000
0000
0000
0040
01c0
00c0
00c0
00c0
00c0
1ec0
31c0
60c0
60c0
60c0
60c0
60c0
60c0
60c0
31e0
1e80
0000
0000
0000
0000
0000
0000
ENDCHAR
STARTCHAR e
ENCODING 101
SWIDTH 370 0
DWIDTH 10 0
BBX 10 27 0 -6
BITMAP
0000
0000
0000
0000
0000
0000
0000
0000
0000
0000
1f00
3180
60c0
60c0
7fc0
6000
6000
6000
30c0
3980
0f00
0000
0000
0000
0000
0000
0000
ENDCHAR
STARTCHAR f
ENCODING 102
SWIDTH 259 0
DWIDTH 7 0
BBX 7 27 0 -6
BITMAP
00
00
00
00
1c
36
36
30
30
30
7c
30
30
30
30
30
30
30
30
30
7c
00
00
00
00
00
00
ENDCHAR
STARTCHAR g
ENCODING 103
SWIDTH 444 0
DWIDTH 12 0
BBX 12 27 0 -6
BITMAP
0000
0000
0000
0000
0000
0000
0000
0000
0000
0000
1e00
3380
61e0
6180
6180
6180
3300
3e00
6000
7000
3f80
10e0
6070
c030
c030
e060
7f00
ENDCHAR
STARTCHAR h
ENCODING 104
SWIDTH 407 0
DWIDTH 11 0
BBX 11 27 0 -6
BITMAP
0000
0000
0000
0000
1000
7000
3000
3000
3000
3000
3380
35c0
38c0
30c0
30c0
30c0
30c0
30c0
30c0
30c0
79e0
0000
0000
0000
0000
0000
0000
ENDCHAR
STARTCHAR i
ENCODING 105
SWIDTH 185 0
DWIDTH 5 0
BBX 5 27 0 -6
BITMAP
00
00
00
00
30
30
00
00
00
00
10
70
30
30
30
30
30
30
30
30
78
00
00
00
00
00
00
ENDCHAR
STARTCHAR j
ENCODING 106
SWIDTH 185 0
DWIDTH 5 0
BBX 5 27 0 -6
BITMAP
00
00
00
00
30
30
00
00
00
00
08
38
18
18
18
18
18
18
18
18
18
18
18
d8
d8
70
00
ENDCHAR
STARTCHAR k
ENCODING 107
SWIDTH 444 0
DWIDTH 12 0
BBX 12 27 0 -6
BITMAP
0000
0000
0000
0000
1000
7000
3000
3000
3000
3000
33c0
3100
3200
3400
3c00
3c00
3600
3300
3180
30c0
79f0
0000
0000
0000
0000
0000
0000
ENDCHAR
STARTCHAR l
ENCODING 108
SWIDTH 185 0
DWIDTH 5 0
BBX 5 27 0 -6
BITMAP
00
00
00
00
10
70
30
30
30
30
30
30
30
30
30
30
30
30
30
30
78
00
00
00
00
00
00
ENDCHAR
STARTCHAR m
ENCODING 109
SWIDTH 629 0
DWIDTH 17 0
BBX 17 27 0 -6
BITMAP
000000
000000
000000
000000
000000
000000
000000
000000
000000
000000
138e00
75d700
38e300
30c300
30c300
30c300
30c300
30c300
30c300
30c300
79e780
000000
000000
000000
000000
000000
000000
ENDCHAR
STARTCHAR n
ENCODING 110
SWIDTH 407 0
DWIDTH 11 0
BBX 11 27 0 -6
BITMAP
0000
0000
0000
0000
0000
0000
0000
0000
0000
0000
1380
75c0
38c0
30c0
30c0
30c0
30c0
30c0
30c0
30c0
79e0
0000
0000
0000
0000
0000
0000
ENDCHAR
STARTCHAR o
ENCODING 111
SWIDTH 407 0
DWIDTH 11 0
BBX 11 27 0 -6
BITMAP
0000
0000
0000
0000
0000
0000
0000
0000
0000
0000
0700
1980
30c0
6060
6060
6060
6060
6060
30c0
1980
0e00
0000
0000
0000
0000
0000
0000
ENDCHAR
STARTCHAR p
ENCODING 112
SWIDTH 407 0
DWIDTH 11 0
BBX 11 27 0 -6
BITMAP
0000
0000
0000
0000
0000
0000
0000
0000
0000
0000
1f80
78c0
3060
3060
3060
3060
3060
3060
3060
38c0
3700
3000
3000
3000
3000
7800
0000
ENDCHAR
STARTCHAR q
ENCODING 113
SWIDTH 407 0
DWIDTH 11 0
BBX 11 27 0 -6
BITMAP
0000
0000
0000
0000
0000
0000
0000
0000
0000
0000
1f40
31c0
60c0
60c0
60c0
60c0
60c0
60c0
60c0
31c0
1ec0
00c0
00c0
00c0
00c0
01e0
0000
ENDCHAR
STARTCHAR r
ENCODING 114
SWIDTH 296 0
DWIDTH 8 0
BBX 8 27 0 -6
BITMAP
00
00
00
00
00
00
00
00
00
00
17
7b
30
30
30
30
30
30
30
30
78
00
00
00
00
00
00
ENDCHAR
STARTCHAR s
ENCODING 115
SWIDTH 333 0
DWIDTH 9 0
BBX 9 27 0 -6
BITMAP
0000
0000
0000
0000
0000
0000
0000
0000
0000
0000
1f00
3300
6100
7000
3c00
0f00
0380
4180
6180
7300
4e00
0000
0000
0000
0000
0000
0000
ENDCHAR
STARTCHAR t
ENCODING 116
SWIDTH 222 0
DWIDTH 6 0
BBX 6 27 0 -6
BITMAP
00
00
00
00
00
00
10
10
30
30
7c
30
30
30
30
30
30
30
30
34
18
00
00
00
00
00
00
ENDCHAR
STARTCHAR u
ENCODING 117
SWIDTH 407 0
DWIDTH 11 0
BBX 11 27 0 -6
BITMAP
0000
0000
0000
0000
0000
0000
0000
0000
0000
0000
71c0
30c0
30c0
30c0
30c0
30c0
30c0
30c0
31c0
1ae0
0c80
0000
0000
0000
0000
0000
0000
ENDCHAR
STARTCHAR v
ENCODING 118
SWIDTH 407 0
DWIDTH 11 0
BBX 11 27 0 -6
BITMAP
0000
0000
0000
0000
0000
0000
0000
0000
0000
0000
f0e0
6040
6040
3080
3080
1900
1900
0e00
0e00
0400
0400
0000
0000
0000
0000
0000
0000
ENDCHAR
STARTCHAR w
ENCODING 119
SWIDTH 629 0
DWIDTH 17 0
BBX 17 27 0 -6
BITMAP
000000
000000
000000
000000
000000
000000
000000
000000
000000
000000
f3c380
618100
618100
30c200
30c200
196400
196400
0e3800
0e3800
041000
041000
000000
000000
000000
000000
000000
000000
ENDCHAR
STARTCHAR x
ENCODING 120
SWIDTH 444 0
DWIDTH 12 0
BBX 12 27 0 -6
BITMAP
0000
0000
0000
0000
0000
0000
0000
0000
0000
0000
79e0
3080
1900
1d00
0e00
0600
0700
0b00
1180
30c0
79e0
0000
0000
0000
0000
0000
0000
ENDCHAR
STARTCHAR y
ENCODING 121
SWIDTH 481 0
DWIDTH 13 0
BBX 13 27 0 -6
BITMAP
0000
0000
0000
0000
0000
0000
0000
0000
0000
0000
7870
3020
3020
1840
1840
0c80
0c80
0700
0700
0200
0200
0400
0400
0800
6800
7000
0000
ENDCHAR
STARTCHAR z
ENCODING 122
SWIDTH 407 0
DWIDTH 11 0
BBX 11 27 0 -6
BITMAP
0000
0000
0000
0000
0000
0000
0000
0000
0000
0000
3fc0
2180
2300
0300
0600
0c00
0c00
1800
3040
3040
7fc0
0000
0000
0000
0000
0000
0000
ENDCHAR
STARTCHAR braceleft
ENCODING 123
SWIDTH 370 0
DWIDTH 10 0
BBX 10 27 0 -6
BITMAP
0000
0000
0000
0000
0100
0600
0c00
0c00
0c00
0c00
0c00
0c00
0c00
0c00
0c00
1800
0c00
0c00
0c00
0c00
0c00
0c00
0c00
0c00
0400
0200
0000
ENDCHAR
STARTCHAR bar
ENCODING 124
SWIDTH 222 0
DWIDTH 6 0
BBX 6 27 0 -6
BITMAP
00
00
00
00
30
30
30
30
30
30
30
30
30
30
30
30
30
30
30
30
30
00
00
00
00
00
00
ENDCHAR
STARTCHAR braceright
ENCODING 125
SWIDTH 370 0
DWIDTH 10 0
BBX 10 27 0 -6
BITMAP
0000
0000
0000
0000
1000
0800
0c00
0c00
0c00
0c00
0c00
0c00
0c00
0c00
0c00
0600
0c00
0c00
0c00
0c00
0c00
0c00
0c00
0c00
0800
1000
0000
ENDCHAR
STARTCHAR asciitilde
ENCODING 126
SWIDTH 444 0
DWIDTH 12 0
BBX 12 27 0 -6
BITMAP
0000
0000
0000
0000
1c20
3e60
67c0
4380
0000
0000
0000
0000
0000
0000
0000
0000
0000
0000
0000
0000
0000
0000
0000
0000
0000
0000
0000
ENDCHAR
STARTCHAR C177
ENCODING -1
SWIDTH 296 0
DWIDTH 8 0
BBX 8 27 0 -6
BITMAP
00
00
00
00
3c
3c
3c
3c
3c
3c
3c
3c
3c
3c
3c
3c
3c
3c
3c
3c
3c
00
00
00
00
00
00
ENDCHAR
STARTCHAR C200
ENCODING -1
SWIDTH 296 0
DWIDTH 8 0
BBX 8 27 0 -6
BITMAP
00
00
00
00
3c
3c
3c
3c
3c
3c
3c
3c
3c
3c
3c
3c
3c
3c
3c
3c
3c
00
00
00
00
00
00
ENDCHAR
STARTCHAR C201
ENCODING -1
SWIDTH 296 0
DWIDTH 8 0
BBX 8 27 0 -6
BITMAP
00
00
00
00
3c
3c
3c
3c
3c
3c
3c
3c
3c
3c
3c
3c
3c
3c
3c
3c
3c
00
00
00
00
00
00
ENDCHAR
STARTCHAR C202
ENCODING -1
SWIDTH 296 0
DWIDTH 8 0
BBX 8 27 0 -6
BITMAP
00
00
00
00
3c
3c
3c
3c
3c
3c
3c
3c
3c
3c
3c
3c
3c
3c
3c
3c
3c
00
00
00
00
00
00
ENDCHAR
STARTCHAR C203
ENCODING -1
SWIDTH 296 0
DWIDTH 8 0
BBX 8 27 0 -6
BITMAP
00
00
00
00
3c
3c
3c
3c
3c
3c
3c
3c
3c
3c
3c
3c
3c
3c
3c
3c
3c
00
00
00
00
00
00
ENDCHAR
STARTCHAR C204
ENCODING -1
SWIDTH 296 0
DWIDTH 8 0
BBX 8 27 0 -6
BITMAP
00
00
00
00
3c
3c
3c
3c
3c
3c
3c
3c
3c
3c
3c
3c
3c
3c
3c
3c
3c
00
00
00
00
00
00
ENDCHAR
STARTCHAR C205
ENCODING -1
SWIDTH 296 0
DWIDTH 8 0
BBX 8 27 0 -6
BITMAP
00
00
00
00
3c
3c
3c
3c
3c
3c
3c
3c
3c
3c
3c
3c
3c
3c
3c
3c
3c
00
00
00
00
00
00
ENDCHAR
STARTCHAR C206
ENCODING -1
SWIDTH 296 0
DWIDTH 8 0
BBX 8 27 0 -6
BITMAP
00
00
00
00
3c
3c
3c
3c
3c
3c
3c
3c
3c
3c
3c
3c
3c
3c
3c
3c
3c
00
00
00
00
00
00
ENDCHAR
STARTCHAR C207
ENCODING -1
SWIDTH 296 0
DWIDTH 8 0
BBX 8 27 0 -6
BITMAP
00
00
00
00
3c
3c
3c
3c
3c
3c
3c
3c
3c
3c
3c
3c
3c
3c
3c
3c
3c
00
00
00
00
00
00
ENDCHAR
STARTCHAR C210
ENCODING -1
SWIDTH 296 0
DWIDTH 8 0
BBX 8 27 0 -6
BITMAP
00
00
00
00
3c
3c
3c
3c
3c
3c
3c
3c
3c
3c
3c
3c
3c
3c
3c
3c
3c
00
00
00
00
00
00
ENDCHAR
STARTCHAR C211
ENCODING -1
SWIDTH 296 0
DWIDTH 8 0
BBX 8 27 0 -6
BITMAP
00
00
00
00
3c
3c
3c
3c
3c
3c
3c
3c
3c
3c
3c
3c
3c
3c
3c
3c
3c
00
00
00
00
00
00
ENDCHAR
STARTCHAR C212
ENCODING -1
SWIDTH 296 0
DWIDTH 8 0
BBX 8 27 0 -6
BITMAP
00
00
00
00
3c
3c
3c
3c
3c
3c
3c
3c
3c
3c
3c
3c
3c
3c
3c
3c
3c
00
00
00
00
00
00
ENDCHAR
STARTCHAR C213
ENCODING -1
SWIDTH 296 0
DWIDTH 8 0
BBX 8 27 0 -6
BITMAP
00
00
00
00
3c
3c
3c
3c
3c
3c
3c
3c
3c
3c
3c
3c
3c
3c
3c
3c
3c
00
00
00
00
00
00
ENDCHAR
STARTCHAR C214
ENCODING -1
SWIDTH 296 0
DWIDTH 8 0
BBX 8 27 0 -6
BITMAP
00
00
00
00
3c
3c
3c
3c
3c
3c
3c
3c
3c
3c
3c
3c
3c
3c
3c
3c
3c
00
00
00
00
00
00
ENDCHAR
STARTCHAR C215
ENCODING -1
SWIDTH 296 0
DWIDTH 8 0
BBX 8 27 0 -6
BITMAP
00
00
00
00
3c
3c
3c
3c
3c
3c
3c
3c
3c
3c
3c
3c
3c
3c
3c
3c
3c
00
00
00
00
00
00
ENDCHAR
STARTCHAR C216
ENCODING -1
SWIDTH 296 0
DWIDTH 8 0
BBX 8 27 0 -6
BITMAP
00
00
00
00
3c
3c
3c
3c
3c
3c
3c
3c
3c
3c
3c
3c
3c
3c
3c
3c
3c
00
00
00
00
00
00
ENDCHAR
STARTCHAR C217
ENCODING -1
SWIDTH 296 0
DWIDTH 8 0
BBX 8 27 0 -6
BITMAP
00
00
00
00
3c
3c
3c
3c
3c
3c
3c
3c
3c
3c
3c
3c
3c
3c
3c
3c
3c
00
00
00
00
00
00
ENDCHAR
STARTCHAR C220
ENCODING -1
SWIDTH 296 0
DWIDTH 8 0
BBX 8 27 0 -6
BITMAP
00
00
00
00
3c
3c
3c
3c
3c
3c
3c
3c
3c
3c
3c
3c
3c
3c
3c
3c
3c
00
00
00
00
00
00
ENDCHAR
STARTCHAR C221
ENCODING -1
SWIDTH 222 0
DWIDTH 6 0
BBX 6 27 0 -6
BITMAP
00
00
00
00
20
40
60
70
70
20
00
00
00
00
00
00
00
00
00
00
00
00
00
00
00
00
00
ENDCHAR
STARTCHAR C222
ENCODING -1
SWIDTH 222 0
DWIDTH 6 0
BBX 6 27 0 -6
BITMAP
00
00
00
00
10
38
38
18
08
10
00
00
00
00
00
00
00
00
00
00
00
00
00
00
00
00
00
ENDCHAR
STARTCHAR C223
ENCODING -1
SWIDTH 296 0
DWIDTH 8 0
BBX 8 27 0 -6
BITMAP
00
00
00
00
3c
3c
3c
3c
3c
3c
3c
3c
3c
3c
3c
3c
3c
3c
3c
3c
3c
00
00
00
00
00
00
ENDCHAR
STARTCHAR C224
ENCODING -1
SWIDTH 296 0
DWIDTH 8 0
BBX 8 27 0 -6
BITMAP
00
00
00
00
3c
3c
3c
3c
3c
3c
3c
3c
3c
3c
3c
3c
3c
3c
3c
3c
3c
00
00
00
00
00
00
ENDCHAR
STARTCHAR C225
ENCODING -1
SWIDTH 296 0
DWIDTH 8 0
BBX 8 27 0 -6
BITMAP
00
00
00
00
3c
3c
3c
3c
3c
3c
3c
3c
3c
3c
3c
3c
3c
3c
3c
3c
3c
00
00
00
00
00
00
ENDCHAR
STARTCHAR C226
ENCODING -1
SWIDTH 296 0
DWIDTH 8 0
BBX 8 27 0 -6
BITMAP
00
00
00
00
3c
3c
3c
3c
3c
3c
3c
3c
3c
3c
3c
3c
3c
3c
3c
3c
3c
00
00
00
00
00
00
ENDCHAR
STARTCHAR C227
ENCODING -1
SWIDTH 296 0
DWIDTH 8 0
BBX 8 27 0 -6
BITMAP
00
00
00
00
3c
3c
3c
3c
3c
3c
3c
3c
3c
3c
3c
3c
3c
3c
3c
3c
3c
00
00
00
00
00
00
ENDCHAR
STARTCHAR C230
ENCODING -1
SWIDTH 296 0
DWIDTH 8 0
BBX 8 27 0 -6
BITMAP
00
00
00
00
3c
3c
3c
3c
3c
3c
3c
3c
3c
3c
3c
3c
3c
3c
3c
3c
3c
00
00
00
00
00
00
ENDCHAR
STARTCHAR C231
ENCODING -1
SWIDTH 296 0
DWIDTH 8 0
BBX 8 27 0 -6
BITMAP
00
00
00
00
3c
3c
3c
3c
3c
3c
3c
3c
3c
3c
3c
3c
3c
3c
3c
3c
3c
00
00
00
00
00
00
ENDCHAR
STARTCHAR C232
ENCODING -1
SWIDTH 296 0
DWIDTH 8 0
BBX 8 27 0 -6
BITMAP
00
00
00
00
3c
3c
3c
3c
3c
3c
3c
3c
3c
3c
3c
3c
3c
3c
3c
3c
3c
00
00
00
00
00
00
ENDCHAR
STARTCHAR C233
ENCODING -1
SWIDTH 296 0
DWIDTH 8 0
BBX 8 27 0 -6
BITMAP
00
00
00
00
3c
3c
3c
3c
3c
3c
3c
3c
3c
3c
3c
3c
3c
3c
3c
3c
3c
00
00
00
00
00
00
ENDCHAR
STARTCHAR C234
ENCODING -1
SWIDTH 296 0
DWIDTH 8 0
BBX 8 27 0 -6
BITMAP
00
00
00
00
3c
3c
3c
3c
3c
3c
3c
3c
3c
3c
3c
3c
3c
3c
3c
3c
3c
00
00
00
00
00
00
ENDCHAR
STARTCHAR C235
ENCODING -1
SWIDTH 296 0
DWIDTH 8 0
BBX 8 27 0 -6
BITMAP
00
00
00
00
3c
3c
3c
3c
3c
3c
3c
3c
3c
3c
3c
3c
3c
3c
3c
3c
3c
00
00
00
00
00
00
ENDCHAR
STARTCHAR C236
ENCODING -1
SWIDTH 296 0
DWIDTH 8 0
BBX 8 27 0 -6
BITMAP
00
00
00
00
3c
3c
3c
3c
3c
3c
3c
3c
3c
3c
3c
3c
3c
3c
3c
3c
3c
00
00
00
00
00
00
ENDCHAR
STARTCHAR C237
ENCODING -1
SWIDTH 296 0
DWIDTH 8 0
BBX 8 27 0 -6
BITMAP
00
00
00
00
3c
3c
3c
3c
3c
3c
3c
3c
3c
3c
3c
3c
3c
3c
3c
3c
3c
00
00
00
00
00
00
ENDCHAR
STARTCHAR C240
ENCODING 160
SWIDTH 222 0
DWIDTH 6 0
BBX 6 27 0 -6
BITMAP
00
00
00
00
00
00
00
00
00
00
00
00
00
00
00
00
00
00
00
00
00
00
00
00
00
00
00
ENDCHAR
STARTCHAR exclamdown
ENCODING 161
SWIDTH 555 0
DWIDTH 15 0
BBX 15 27 0 -6
BITMAP
0000
1860
3cf0
1860
0000
7ff8
1818
1808
1800
1800
1820
1820
1fe0
1820
1820
1800
1800
1800
1804
180c
7ff8
0000
0000
0000
0000
0000
0000
ENDCHAR
STARTCHAR cent
ENCODING 162
SWIDTH 444 0
DWIDTH 12 0
BBX 12 27 0 -6
BITMAP
0000
0000
0000
0000
0000
0000
0000
0020
0020
0040
07c0
18e0
1160
3100
3200
3200
3400
3400
1820
1c60
1fc0
2000
2000
0000
0000
0000
0000
ENDCHAR
STARTCHAR sterling
ENCODING 184
SWIDTH 444 0
DWIDTH 12 0
BBX 12 27 0 -6
BITMAP
0000
0000
0000
0000
0f80
18c0
30e0
3040
3000
3000
1800
7f00
1800
1800
1800
1800
3800
7800
9e10
bf30
61e0
0000
0000
0000
0000
0000
0000
ENDCHAR
STARTCHAR currency
ENCODING 164
SWIDTH 444 0
DWIDTH 12 0
BBX 12 27 0 -6
BITMAP
0000
0000
0000
0000
0000
6f60
7fe0
30c0
6060
6060
6060
6060
30c0
7fe0
6f60
0000
0000
0000
0000
0000
0000
0000
0000
0000
0000
0000
0000
ENDCHAR
STARTCHAR yen
ENCODING 165
SWIDTH 444 0
DWIDTH 12 0
BBX 12 27 0 -6
BITMAP
0000
0000
0000
0000
f070
6020
6020
3040
3040
1880
1880
fdf0
0f00
0e00
fff0
0600
0600
0600
0600
0600
1f80
0000
0000
0000
0000
0000
0000
ENDCHAR
STARTCHAR brokenbar
ENCODING 166
SWIDTH 222 0
DWIDTH 6 0
BBX 6 27 0 -6
BITMAP
00
00
00
00
30
30
30
30
30
30
30
00
00
00
30
30
30
30
30
30
30
00
00
00
00
00
00
ENDCHAR
STARTCHAR section
ENCODING 167
SWIDTH 444 0
DWIDTH 12 0
BBX 12 27 0 -6
BITMAP
0000
0000
0000
0000
0780
0cc0
18c0
1800
0c00
0600
0f00
1380
31c0
30e0
3860
1c60
0e40
0780
0300
0180
00c0
18c0
1980
0f00
0000
0000
0000
ENDCHAR
STARTCHAR dieresis
ENCODING 168
SWIDTH 296 0
DWIDTH 8 0
BBX 8 27 0 -6
BITMAP
00
00
00
00
66
66
00
00
00
00
00
00
00
00
00
00
00
00
00
00
00
00
00
00
00
00
00
ENDCHAR
STARTCHAR copyright
ENCODING 169
SWIDTH 666 0
DWIDTH 18 0
BBX 18 27 0 -6
BITMAP
000000
000000
000000
000000
03f000
0e1c00
180600
300300
31f300
633180
661180
660180
660180
661180
632180
31c300
300300
180600
0e1c00
03f000
000000
000000
000000
000000
000000
000000
000000
ENDCHAR
STARTCHAR ordfeminine
ENCODING 170
SWIDTH 296 0
DWIDTH 8 0
BBX 8 27 0 -6
BITMAP
00
00
00
00
3c
66
06
0e
36
66
6f
33
00
7f
00
00
00
00
00
00
00
00
00
00
00
00
00
ENDCHAR
STARTCHAR guillemotleft
ENCODING 171
SWIDTH 444 0
DWIDTH 12 0
BBX 12 27 0 -6
BITMAP
0000
0000
0000
0000
0000
0000
0000
0000
0000
0660
0cc0
1980
3300
6600
6600
3300
1980
0cc0
0660
0000
0000
0000
0000
0000
0000
0000
0000
ENDCHAR
STARTCHAR logicalnot
ENCODING 172
SWIDTH 518 0
DWIDTH 14 0
BBX 14 27 0 -6
BITMAP
0000
0000
0000
0000
0000
0000
0000
0000
0000
0000
0000
7ff8
7ff8
0018
0018
0000
0000
0000
0000
0000
0000
0000
0000
0000
0000
0000
0000
ENDCHAR
STARTCHAR hyphen
ENCODING 173
SWIDTH 296 0
DWIDTH 8 0
BBX 8 27 0 -6
BITMAP
00
00
00
00
00
00
00
00
00
00
00
00
7e
7e
00
00
00
00
00
00
00
00
00
00
00
00
00
ENDCHAR
STARTCHAR registered
ENCODING 174
SWIDTH 666 0
DWIDTH 18 0
BBX 18 27 0 -6
BITMAP
000000
000000
000000
000000
03f000
0e1c00
180600
300300
37e300
633180
631180
633180
63e180
636180
633180
379b00
300300
180600
0e1c00
03f000
000000
000000
000000
000000
000000
000000
000000
ENDCHAR
STARTCHAR macron
ENCODING 175
SWIDTH 444 0
DWIDTH 12 0
BBX 12 27 0 -6
BITMAP
0000
0000
0000
fff0
fff0
0000
0000
0000
0000
0000
0000
0000
0000
0000
0000
0000
0000
0000
0000
0000
0000
0000
0000
0000
0000
0000
0000
ENDCHAR
STARTCHAR degree
ENCODING 176
SWIDTH 296 0
DWIDTH 8 0
BBX 8 27 0 -6
BITMAP
00
00
00
18
3c
66
66
3c
18
00
00
00
00
00
00
00
00
00
00
00
00
00
00
00
00
00
00
ENDCHAR
STARTCHAR plusminus
ENCODING 177
SWIDTH 518 0
DWIDTH 14 0
BBX 14 27 0 -6
BITMAP
0000
0000
0000
0000
0000
0000
0300
0300
0300
0300
3ff0
3ff0
0300
0300
0300
0300
0000
0000
0000
3ff0
3ff0
0000
0000
0000
0000
0000
0000
ENDCHAR
STARTCHAR twosuperior
ENCODING 178
SWIDTH 222 0
DWIDTH 6 0
BBX 6 27 0 -6
BITMAP
00
00
00
00
70
d8
18
18
30
60
48
f8
00
00
00
00
00
00
00
00
00
00
00
00
00
00
00
ENDCHAR
STARTCHAR threesuperior
ENCODING 168
SWIDTH 222 0
DWIDTH 6 0
BBX 6 27 0 -6
BITMAP
00
00
00
00
70
d8
18
70
18
18
d8
70
00
00
00
00
00
00
00
00
00
00
00
00
00
00
00
ENDCHAR
STARTCHAR acute
ENCODING 180
SWIDTH 296 0
DWIDTH 8 0
BBX 8 27 0 -6
BITMAP
00
00
00
00
0c
18
20
00
00
00
00
00
00
00
00
00
00
00
00
00
00
00
00
00
00
00
00
ENDCHAR
STARTCHAR mu
ENCODING 181
SWIDTH 444 0
DWIDTH 12 0
BBX 12 27 0 -6
BITMAP
0000
0000
0000
0000
0000
0000
0000
0000
0000
0000
70e0
3060
3060
3060
3060
3060
3060
3060
30e0
3970
3e40
3000
3000
3000
3000
3000
0000
ENDCHAR
STARTCHAR paragraph
ENCODING 182
SWIDTH 407 0
DWIDTH 11 0
BBX 11 27 0 -6
BITMAP
0000
0000
0000
0000
0000
0000
0000
1fc0
3fc0
7c80
7c80
7c80
7c80
3c80
1c80
0480
0480
0480
0480
0480
0480
0480
0480
0000
0000
0000
0000
ENDCHAR
STARTCHAR periodcentered
ENCODING 183
SWIDTH 222 0
DWIDTH 6 0
BBX 6 27 0 -6
BITMAP
00
00
00
00
00
00
00
00
00
00
00
30
78
78
30
00
00
00
00
00
00
00
00
00
00
00
00
ENDCHAR
STARTCHAR cedilla
ENCODING 184
SWIDTH 296 0
DWIDTH 8 0
BBX 8 27 0 -6
BITMAP
00
00
00
00
00
00
00
00
00
00
00
00
00
00
00
00
00
00
00
00
00
08
10
1c
46
3c
00
ENDCHAR
STARTCHAR onesuperior
ENCODING 185
SWIDTH 222 0
DWIDTH 6 0
BBX 6 27 0 -6
BITMAP
00
00
00
00
10
70
30
30
30
30
30
78
00
00
00
00
00
00
00
00
00
00
00
00
00
00
00
ENDCHAR
STARTCHAR ordmasculine
ENCODING 186
SWIDTH 296 0
DWIDTH 8 0
BBX 8 27 0 -6
BITMAP
00
00
00
00
3c
66
66
66
66
66
66
3c
00
7e
00
00
00
00
00
00
00
00
00
00
00
00
00
ENDCHAR
STARTCHAR guillemotright
ENCODING 187
SWIDTH 444 0
DWIDTH 12 0
BBX 12 27 0 -6
BITMAP
0000
0000
0000
0000
0000
0000
0000
0000
6600
3300
1980
0cc0
0660
0660
0cc0
1980
3300
6600
0000
0000
0000
0000
0000
0000
0000
0000
0000
ENDCHAR
STARTCHAR onequarter
ENCODING 188
SWIDTH 592 0
DWIDTH 16 0
BBX 16 27 0 -6
BITMAP
0000
0000
0000
0000
3018
7018
3030
3060
3060
30c0
3180
7980
0300
060c
061c
0c1c
182c
182c
307e
600c
600c
0000
0000
0000
0000
0000
0000
ENDCHAR
STARTCHAR onehalf
ENCODING 189
SWIDTH 592 0
DWIDTH 16 0
BBX 16 27 0 -6
BITMAP
0000
0000
0000
0000
100c
700c
3018
3030
3030
3060
30c0
78c0
0180
031c
0336
0606
0c06
0c0c
1818
3012
303e
0000
0000
0000
0000
0000
0000
ENDCHAR
STARTCHAR threequarters
ENCODING 190
SWIDTH 592 0
DWIDTH 16 0
BBX 16 27 0 -6
BITMAP
0000
0000
0000
0000
380c
6c0c
0c18
3830
0c30
0c60
6cc0
38c0
0180
030c
031c
061c
0c2c
0c2c
187e
300c
300c
0000
0000
0000
0000
0000
0000
ENDCHAR
STARTCHAR questiondown
ENCODING 191
SWIDTH 407 0
DWIDTH 11 0
BBX 11 27 0 -6
BITMAP
0000
0000
0000
0000
0000
0000
1100
3b80
1100
0000
1f00
3180
60c0
60c0
7fc0
6000
6000
6000
30c0
3980
0f00
0000
0000
0000
0000
0000
0000
ENDCHAR
STARTCHAR cyr-A
ENCODING 192
SWIDTH 629 0
DWIDTH 17 0
BBX 17 27 0 -6
BITMAP
000000
000000
000000
000000
000000
00c000
00c000
01e000
016000
033000
023000
023000
061800
041800
041800
0ffc00
080c00
180600
100600
100600
7c1f80
000000
000000
000000
000000
000000
000000
ENDCHAR
STARTCHAR cyr-Be
ENCODING 193
SWIDTH 555 0
DWIDTH 15 0
BBX 15 27 0 -6
BITMAP
0000
0000
0000
0000
0000
7ffc
300c
3004
3000
3000
3000
3fe0
3038
3018
300c
300c
300c
300c
3018
3038
7fe0
0000
0000
0000
0000
0000
0000
ENDCHAR
STARTCHAR cyr-Ve
ENCODING 194
SWIDTH 555 0
DWIDTH 15 0
BBX 15 27 0 -6
BITMAP
0000
0000
0000
0000
0000
7fe0
3030
3018
3018
3018
3018
3030
3ff0
3038
3018
300c
300c
300c
3018
3038
7fe0
0000
0000
0000
0000
0000
0000
ENDCHAR
STARTCHAR cyr-Ghe
ENCODING 195
SWIDTH 518 0
DWIDTH 14 0
BBX 14 27 0 -6
BITMAP
0000
0000
0000
0000
0000
7ff8
3018
3008
3000
3000
3000
3000
3000
3000
3000
3000
3000
3000
3000
3000
7800
0000
0000
0000
0000
0000
0000
ENDCHAR
STARTCHAR cyr-De
ENCODING 196
SWIDTH 629 0
DWIDTH 17 0
BBX 17 27 0 -6
BITMAP
000000
000000
000000
000000
000000
1ffe00
080c00
080c00
080c00
080c00
080c00
080c00
080c00
080c00
080c00
080c00
080c00
080c00
080c00
100c00
7fff00
600300
400100
400100
000000
000000
000000
ENDCHAR
STARTCHAR cyr-Ie
ENCODING 197
SWIDTH 518 0
DWIDTH 14 0
BBX 14 27 0 -6
BITMAP
0000
0000
0000
0000
0000
7ff0
3030
3010
3000
3000
3000
3040
3fc0
3040
3000
3000
3000
3000
3008
3018
7ff8
0000
0000
0000
0000
0000
0000
ENDCHAR
STARTCHAR cyr-Zhe
ENCODING 198
SWIDTH 851 0
DWIDTH 23 0
BBX 23 27 0 -6
BITMAP
000000
000000
000000
000000
000000
387e1c
34182c
021840
021840
011880
011880
00ff00
01db80
019980
0318c0
0318c0
061860
0c1830
0c1830
181818
7c7e3e
000000
000000
000000
000000
000000
000000
ENDCHAR
STARTCHAR cyr-Ze
ENCODING 199
SWIDTH 444 0
DWIDTH 12 0
BBX 12 27 0 -6
BITMAP
0000
0000
0000
0000
0000
5f00
60c0
4060
0060
0060
0060
00c0
0780
00c0
0060
0060
0060
0060
4060
60c0
5f00
0000
0000
0000
0000
0000
0000
ENDCHAR
STARTCHAR cyr-I
ENCODING 200
SWIDTH 555 0
DWIDTH 15 0
BBX 15 27 0 -6
BITMAP
0000
0000
0000
0000
0000
783c
3038
3038
3058
3058
3098
3098
3118
3118
3218
3218
3418
3418
3818
3818
783c
0000
0000
0000
0000
0000
0000
ENDCHAR
STARTCHAR cyr-I-short
ENCODING 201
SWIDTH 555 0
DWIDTH 15 0
BBX 15 27 0 -6
BITMAP
0000
0420
0660
03c0
0000
783c
3038
3038
3058
3058
3098
3098
3118
3118
3218
3218
3418
3418
3818
3818
783c
0000
0000
0000
0000
0000
0000
ENDCHAR
STARTCHAR cyr-Ka
ENCODING 202
SWIDTH 555 0
DWIDTH 15 0
BBX 15 27 0 -6
BITMAP
0000
0000
0000
0000
0000
7e1c
182c
1840
1840
1880
1880
1f00
1b80
1980
18c0
18c0
1860
1830
1830
1818
7e3e
0000
0000
0000
0000
0000
0000
ENDCHAR
STARTCHAR cyr-El
ENCODING 203
SWIDTH 592 0
DWIDTH 16 0
BBX 16 27 0 -6
BITMAP
0000
0000
0000
0000
0000
0ffe
040c
040c
040c
040c
040c
040c
040c
040c
040c
040c
040c
040c
740c
740c
383e
0000
0000
0000
0000
0000
0000
ENDCHAR
STARTCHAR cyr-Em
ENCODING 204
SWIDTH 703 0
DWIDTH 19 0
BBX 19 27 0 -6
BITMAP
000000
000000
000000
000000
000000
7803c0
380380
3c0380
2c0780
2c0580
260580
260d80
230980
230980
231980
219180
21b180
20e180
20e180
20e180
7043c0
000000
000000
000000
000000
000000
000000
ENDCHAR
STARTCHAR cyr-En
ENCODING 205
SWIDTH 555 0
DWIDTH 15 0
BBX 15 27 0 -6
BITMAP
0000
0000
0000
0000
0000
783c
3018
3018
3018
3018
3018
3018
3ff8
3018
3018
3018
3018
3018
3018
3018
783c
0000
0000
0000
0000
0000
0000
ENDCHAR
STARTCHAR cyr-O
ENCODING 206
SWIDTH 629 0
DWIDTH 17 0
BBX 17 27 0 -6
BITMAP
000000
000000
000000
000000
000000
03e000
0e3800
180c00
380e00
300600
700700
700700
700700
700700
700700
700700
300600
380e00
180c00
0e3800
03e000
000000
000000
000000
000000
000000
000000
ENDCHAR
STARTCHAR cyr-Pe
ENCODING 207
SWIDTH 555 0
DWIDTH 15 0
BBX 15 27 0 -6
BITMAP
0000
0000
0000
0000
0000
7ffc
3018
3018
3018
3018
3018
3018
3018
3018
3018
3018
3018
3018
3018
3018
783c
0000
0000
0000
0000
0000
0000
ENDCHAR
STARTCHAR cyr-Er
ENCODING 208
SWIDTH 518 0
DWIDTH 14 0
BBX 14 27 0 -6
BITMAP
0000
0000
0000
0000
0000
7fc0
3070
3030
3018
3018
3018
3018
3030
3070
3fc0
3000
3000
3000
3000
3000
7800
0000
0000
0000
0000
0000
0000
ENDCHAR
STARTCHAR cyr-Es
ENCODING 209
SWIDTH 555 0
DWIDTH 15 0
BBX 15 27 0 -6
BITMAP
0000
0000
0000
0000
0000
03e4
0e3c
180c
3804
3004
7000
7000
7000
7000
7000
7000
3000
3804
1c08
0e30
03c0
0000
0000
0000
0000
0000
0000
ENDCHAR
STARTCHAR cyr-Te
ENCODING 210
SWIDTH 592 0
DWIDTH 16 0
BBX 16 27 0 -6
BITMAP
0000
0000
0000
0000
0000
7ffe
6186
4182
0180
0180
0180
0180
0180
0180
0180
0180
0180
0180
0180
0180
03c0
0000
0000
0000
0000
0000
0000
ENDCHAR
STARTCHAR cyr-U
ENCODING 211
SWIDTH 703 0
DWIDTH 19 0
BBX 19 27 0 -6
BITMAP
000000
000000
000000
000000
000000
7e03e0
1c0180
0e0300
060200
070600
038c00
018800
01d800
00f000
006000
006000
00c000
008000
018000
1b0000
0e0000
000000
000000
000000
000000
000000
000000
ENDCHAR
STARTCHAR cyr-Ef
ENCODING 212
SWIDTH 666 0
DWIDTH 18 0
BBX 18 27 0 -6
BITMAP
000000
000000
000000
000000
000000
03f000
0edc00
18c600
30c300
30c300
60c180
60c180
60c180
60c180
30c300
30c300
18c600
0edc00
03f000
00c000
01e000
000000
000000
000000
000000
000000
000000
ENDCHAR
STARTCHAR cyr-Kha
ENCODING 213
SWIDTH 666 0
DWIDTH 18 0
BBX 18 27 0 -6
BITMAP
000000
000000
000000
000000
000000
7f1f80
1c0600
0c0800
060800
031000
01a000
00c000
00e000
00e000
013000
021800
021800
040c00
080600
1c0600
7f1f80
000000
000000
000000
000000
000000
000000
ENDCHAR
STARTCHAR cyr-Tse
ENCODING 214
SWIDTH 592 0
DWIDTH 16 0
BBX 16 27 0 -6
BITMAP
0000
0000
0000
0000
0000
783c
3018
3018
3018
3018
3018
3018
3018
3018
3018
3018
3018
3018
3018
3018
7ffe
0006
0002
0002
0000
0000
0000
ENDCHAR
STARTCHAR cyr-Che
ENCODING 215
SWIDTH 555 0
DWIDTH 15 0
BBX 15 27 0 -6
BITMAP
0000
0000
0000
0000
0000
783c
3018
3018
3018
3018
3018
3018
3018
1ff8
0018
0018
0018
0018
0018
0018
003c
0000
0000
0000
0000
0000
0000
ENDCHAR
STARTCHAR cyr-Sha
ENCODING 216
SWIDTH 740 0
DWIDTH 20 0
BBX 20 27 0 -6
BITMAP
000000
000000
000000
000000
000000
78f1e0
3060c0
3060c0
3060c0
3060c0
3060c0
3060c0
3060c0
3060c0
3060c0
3060c0
3060c0
3060c0
3060c0
3060c0
7fffe0
000000
000000
000000
000000
000000
000000
ENDCHAR
STARTCHAR cyr-Shcha
ENCODING 217
SWIDTH 777 0
DWIDTH 21 0
BBX 21 27 0 -6
BITMAP
000000
000000
000000
000000
000000
78f1e0
3060c0
3060c0
3060c0
3060c0
3060c0
3060c0
3060c0
3060c0
3060c0
3060c0
3060c0
3060c0
3060c0
3060c0
7ffff0
000030
000010
000010
000000
000000
000000
ENDCHAR
STARTCHAR cyr-Ier
ENCODING 218
SWIDTH 666 0
DWIDTH 18 0
BBX 18 27 0 -6
BITMAP
000000
000000
000000
000000
000000
7f0000
660000
460000
460000
060000
060000
07fe00
060300
060180
060180
060180
060180
060180
060180
060300
0ffe00
000000
000000
000000
000000
000000
000000
ENDCHAR
STARTCHAR cyr-Iery
ENCODING 219
SWIDTH 740 0
DWIDTH 20 0
BBX 20 27 0 -6
BITMAP
000000
000000
000000
000000
000000
7801e0
3000c0
3000c0
3000c0
3000c0
3000c0
3ff0c0
3018c0
300cc0
300cc0
300cc0
300cc0
300cc0
300cc0
3018c0
7ff1e0
000000
000000
000000
000000
000000
000000
ENDCHAR
STARTCHAR cyr-Ierik
ENCODING 220
SWIDTH 555 0
DWIDTH 15 0
BBX 15 27 0 -6
BITMAP
0000
0000
0000
0000
0000
7800
3000
3000
3000
3000
3000
3ff0
3018
300c
300c
300c
300c
300c
300c
3018
7ff0
0000
0000
0000
0000
0000
0000
ENDCHAR
STARTCHAR cyr-E-rev
ENCODING 221
SWIDTH 481 0
DWIDTH 13 0
BBX 13 27 0 -6
BITMAP
0000
0000
0000
0000
0000
5f80
6060
4030
0030
0030
0030
0830
0ff0
0830
0030
0030
0030
0030
4030
6060
5f80
0000
0000
0000
0000
0000
0000
ENDCHAR
STARTCHAR cyr-Yu
ENCODING 222
SWIDTH 851 0
DWIDTH 23 0
BBX 23 27 0 -6
BITMAP
000000
000000
000000
000000
000000
780f80
3038e0
306030
30c018
30c018
31800c
31800c
3f800c
31800c
31800c
31800c
30c018
30c018
306030
3038e0
780f80
000000
000000
000000
000000
000000
000000
ENDCHAR
STARTCHAR cyr-Ya
ENCODING 223
SWIDTH 592 0
DWIDTH 16 0
BBX 16 27 0 -6
BITMAP
0000
0000
0000
0000
0000
03fe
0e0c
0c0c
180c
180c
180c
0c0c
0e0c
03fc
00cc
018c
030c
060c
0c0c
180c
701e
0000
0000
0000
0000
0000
0000
ENDCHAR
STARTCHAR cyr-a
ENCODING 224
SWIDTH 407 0
DWIDTH 11 0
BBX 11 27 0 -6
BITMAP
0000
0000
0000
0000
0000
0000
0000
0000
0000
0000
1f00
3180
3180
0180
0780
1d80
3180
6180
63a0
77e0
3cc0
0000
0000
0000
0000
0000
0000
ENDCHAR
STARTCHAR cyr-be
ENCODING 225
SWIDTH 370 0
DWIDTH 10 0
BBX 10 27 0 -6
BITMAP
0000
0000
0000
0080
1f00
2000
6000
6000
6000
6000
6f00
7180
60c0
60c0
60c0
60c0
60c0
60c0
60c0
3180
1e00
0000
0000
0000
0000
0000
0000
ENDCHAR
STARTCHAR cyr-ve
ENCODING 226
SWIDTH 370 0
DWIDTH 10 0
BBX 10 27 0 -6
BITMAP
0000
0000
0000
0000
0000
0000
0000
0000
0000
0000
7f00
3180
3180
3180
3300
3f80
30c0
30c0
30c0
30c0
7f80
0000
0000
0000
0000
0000
0000
ENDCHAR
STARTCHAR cyr-ghe
ENCODING 227
SWIDTH 333 0
DWIDTH 9 0
BBX 9 27 0 -6
BITMAP
0000
0000
0000
0000
0000
0000
0000
0000
0000
0000
7f80
3080
3080
3000
3000
3000
3000
3000
3000
3000
7800
0000
0000
0000
0000
0000
0000
ENDCHAR
STARTCHAR cyr-de
ENCODING 228
SWIDTH 444 0
DWIDTH 12 0
BBX 12 27 0 -6
BITMAP
0000
0000
0000
0000
0000
0000
0000
0000
0000
0000
1fe0
08c0
08c0
08c0
08c0
08c0
08c0
08c0
08c0
10c0
7ff0
6030
4010
0000
0000
0000
0000
ENDCHAR
STARTCHAR cyr-ie
ENCODING 229
SWIDTH 370 0
DWIDTH 10 0
BBX 10 27 0 -6
BITMAP
0000
0000
0000
0000
0000
0000
0000
0000
0000
0000
1f00
3180
60c0
60c0
7fc0
6000
6000
6000
60c0
3180
1f00
0000
0000
0000
0000
0000
0000
ENDCHAR
STARTCHAR cyr-zhe
ENCODING 230
SWIDTH 666 0
DWIDTH 18 0
BBX 18 27 0 -6
BITMAP
000000
000000
000000
000000
000000
000000
000000
000000
000000
000000
71e380
68c580
08c400
04c800
02d000
03f000
06d800
0ccc00
18c600
30c300
f9e7c0
000000
000000
000000
000000
000000
000000
ENDCHAR
STARTCHAR cyr-z
ENCODING 231
SWIDTH 370 0
DWIDTH 10 0
BBX 10 27 0 -6
BITMAP
0000
0000
0000
0000
0000
0000
0000
0000
0000
0000
5f00
6180
40c0
00c0
0180
0f00
0180
00c0
40c0
6180
5f00
0000
0000
0000
0000
0000
0000
ENDCHAR
STARTCHAR cyr-i
ENCODING 232
SWIDTH 444 0
DWIDTH 12 0
BBX 12 27 0 -6
BITMAP
0000
0000
0000
0000
0000
0000
0000
0000
0000
0000
78f0
30e0
3160
3160
3260
3260
3460
3460
3860
3860
78f0
0000
0000
0000
0000
0000
0000
ENDCHAR
STARTCHAR cyr-i-short
ENCODING 233
SWIDTH 444 0
DWIDTH 12 0
BBX 12 27 0 -6
BITMAP
0000
0000
0000
0000
0000
0000
0000
0d80
0700
0000
78f0
30e0
3160
3160
3260
3260
3460
3460
3860
3860
78f0
0000
0000
0000
0000
0000
0000
ENDCHAR
STARTCHAR cyr-ka
ENCODING 234
SWIDTH 444 0
DWIDTH 12 0
BBX 12 27 0 -6
BITMAP
0000
0000
0000
0000
0000
0000
0000
0000
0000
0000
78e0
3160
3100
3200
3c00
3c00
3600
3300
3180
30c0
79f0
0000
0000
0000
0000
0000
0000
ENDCHAR
STARTCHAR cyr-el
ENCODING 235
SWIDTH 444 0
DWIDTH 12 0
BBX 12 27 0 -6
BITMAP
0000
0000
0000
0000
0000
0000
0000
0000
0000
0000
1ff0
0860
0860
0860
0860
0860
0860
0860
0860
6860
70f0
0000
0000
0000
0000
0000
0000
ENDCHAR
STARTCHAR cyr-em
ENCODING 236
SWIDTH 555 0
DWIDTH 15 0
BBX 15 27 0 -6
BITMAP
0000
0000
0000
0000
0000
0000
0000
0000
0000
0000
701e
381c
382c
2c2c
2c4c
264c
268c
238c
238c
210c
701e
0000
0000
0000
0000
0000
0000
ENDCHAR
STARTCHAR cyr-en
ENCODING 237
SWIDTH 444 0
DWIDTH 12 0
BBX 12 27 0 -6
BITMAP
0000
0000
0000
0000
0000
0000
0000
0000
0000
0000
78f0
3060
3060
3060
3060
3fe0
3060
3060
3060
3060
78f0
0000
0000
0000
0000
0000
0000
ENDCHAR
STARTCHAR cyr-o
ENCODING 238
SWIDTH 407 0
DWIDTH 11 0
BBX 11 27 0 -6
BITMAP
0000
0000
0000
0000
0000
0000
0000
0000
0000
0000
1f80
30c0
6060
6060
6060
6060
6060
6060
6060
30c0
1f80
0000
0000
0000
0000
0000
0000
ENDCHAR
STARTCHAR cyr-pe
ENCODING 239
SWIDTH 444 0
DWIDTH 12 0
BBX 12 27 0 -6
BITMAP
0000
0000
0000
0000
0000
0000
0000
0000
0000
0000
7ff0
3060
3060
3060
3060
3060
3060
3060
3060
3060
78f0
0000
0000
0000
0000
0000
0000
ENDCHAR
STARTCHAR cyr-er
ENCODING 240
SWIDTH 407 0
DWIDTH 11 0
BBX 11 27 0 -6
BITMAP
0000
0000
0000
0000
0000
0000
0000
0000
0000
0000
3f80
30c0
3060
3060
3060
3060
3060
3060
3060
30c0
3f80
3000
3000
3000
3000
7800
0000
ENDCHAR
STARTCHAR cyr-es
ENCODING 241
SWIDTH 370 0
DWIDTH 10 0
BBX 10 27 0 -6
BITMAP
0000
0000
0000
0000
0000
0000
0000
0000
0000
0000
1f80
30c0
60c0
6000
6000
6000
6000
6000
6040
30c0
1f80
0000
0000
0000
0000
0000
0000
ENDCHAR
STARTCHAR cyr-te
ENCODING 242
SWIDTH 407 0
DWIDTH 11 0
BBX 11 27 0 -6
BITMAP
0000
0000
0000
0000
0000
0000
0000
0000
0000
0000
7fe0
4620
0600
0600
0600
0600
0600
0600
0600
0600
0f00
0000
0000
0000
0000
0000
0000
ENDCHAR
STARTCHAR cyr-u
ENCODING 243
SWIDTH 444 0
DWIDTH 12 0
BBX 12 27 0 -6
BITMAP
0000
0000
0000
0000
0000
0000
0000
0000
0000
0000
7870
3020
3020
1840
1840
0c80
0c80
0700
0700
0200
0200
0400
0400
0800
6800
7000
0000
ENDCHAR
STARTCHAR cyr-ef
ENCODING 244
SWIDTH 481 0
DWIDTH 13 0
BBX 13 27 0 -6
BITMAP
0000
0000
0000
0000
0000
0000
0000
0000
0000
0000
07c0
1b60
3330
6318
6318
6318
6318
6318
3330
1b60
0fc0
0300
0300
0300
0300
0300
0780
ENDCHAR
STARTCHAR cyr-kha
ENCODING 245
SWIDTH 407 0
DWIDTH 11 0
BBX 11 27 0 -6
BITMAP
0000
0000
0000
0000
0000
0000
0000
0000
0000
0000
79e0
3080
1900
1d00
0e00
0600
0700
0b00
1180
30c0
79e0
0000
0000
0000
0000
0000
0000
ENDCHAR
STARTCHAR cyr-tse
ENCODING 246
SWIDTH 481 0
DWIDTH 13 0
BBX 13 27 0 -6
BITMAP
0000
0000
0000
0000
0000
0000
0000
0000
0000
0000
78f0
3060
3060
3060
3060
3060
3060
3060
3060
3060
7ff8
0018
0008
0000
0000
0000
0000
ENDCHAR
STARTCHAR cyr-che
ENCODING 247
SWIDTH 444 0
DWIDTH 12 0
BBX 12 27 0 -6
BITMAP
0000
0000
0000
0000
0000
0000
0000
0000
0000
0000
78f0
3060
3060
3060
3060
3060
1fe0
0060
0060
0060
00f0
0000
0000
0000
0000
0000
0000
ENDCHAR
STARTCHAR cyr-sha
ENCODING 248
SWIDTH 629 0
DWIDTH 17 0
BBX 17 27 0 -6
BITMAP
000000
000000
000000
000000
000000
000000
000000
000000
000000
000000
79e780
30c300
30c300
30c300
30c300
30c300
30c300
30c300
30c300
30c300
7fff80
000000
000000
000000
000000
000000
000000
ENDCHAR
STARTCHAR cyr-shcha
ENCODING 249
SWIDTH 666 0
DWIDTH 18 0
BBX 18 27 0 -6
BITMAP
000000
000000
000000
000000
000000
000000
000000
000000
000000
000000
79e780
30c300
30c300
30c300
30c300
30c300
30c300
30c300
30c300
30c300
7fffc0
0000c0
000040
000000
000000
000000
000000
ENDCHAR
STARTCHAR cyr-ier
ENCODING 250
SWIDTH 481 0
DWIDTH 13 0
BBX 13 27 0 -6
BITMAP
0000
0000
0000
0000
0000
0000
0000
0000
0000
0000
7f00
6600
4600
4600
07f0
0618
0618
0618
0618
0618
0ff0
0000
0000
0000
0000
0000
0000
ENDCHAR
STARTCHAR cyr-iery
ENCODING 251
SWIDTH 555 0
DWIDTH 15 0
BBX 15 27 0 -6
BITMAP
0000
0000
0000
0000
0000
0000
0000
0000
0000
0000
781e
300c
300c
300c
3f8c
30cc
30cc
30cc
30cc
30cc
7f9e
0000
0000
0000
0000
0000
0000
ENDCHAR
STARTCHAR cyr-ierik
ENCODING 252
SWIDTH 370 0
DWIDTH 10 0
BBX 10 27 0 -6
BITMAP
0000
0000
0000
0000
0000
0000
0000
0000
0000
0000
7800
3000
3000
3000
3f80
30c0
30c0
30c0
30c0
30c0
7f80
0000
0000
0000
0000
0000
0000
ENDCHAR
STARTCHAR cyr-e-rev
ENCODING 253
SWIDTH 370 0
DWIDTH 10 0
BBX 10 27 0 -6
BITMAP
0000
0000
0000
0000
0000
0000
0000
0000
0000
0000
3f00
6180
40c0
00c0
00c0
1fc0
00c0
00c0
40c0
6180
3f00
0000
0000
0000
0000
0000
0000
ENDCHAR
STARTCHAR cyr-yu
ENCODING 254
SWIDTH 592 0
DWIDTH 16 0
BBX 16 27 0 -6
BITMAP
0000
0000
0000
0000
0000
0000
0000
0000
0000
0000
7878
30cc
3186
3303
3303
3f03
3303
3303
3186
30cc
7878
0000
0000
0000
0000
0000
0000
ENDCHAR
STARTCHAR cyr-ya
ENCODING 255
SWIDTH 481 0
DWIDTH 13 0
BBX 13 27 0 -6
BITMAP
0000
0000
0000
0000
0000
0000
0000
0000
0000
0000
0ff8
1830
1830
1830
1830
0ff0
0630
0c30
0c30
1830
7878
0000
0000
0000
0000
0000
0000
ENDCHAR
ENDFONT
